<?xml version="1.0" encoding="UTF-8"?>
<svg xmlns="http://www.w3.org/2000/svg" xmlns:xlink="http://www.w3.org/1999/xlink" viewBox="0 0 48 48" width="48px" height="48px">
<g id="surface135304038">
<path style=" stroke:none;fill-rule:nonzero;fill:rgb(60.000002%,60.000002%,60.000002%);fill-opacity:1;" d="M 44 24 C 44 35.046875 35.046875 44 24 44 C 12.953125 44 4 35.046875 4 24 C 4 12.953125 12.953125 4 24 4 C 35.046875 4 44 12.953125 44 24 Z M 44 24 "/>
<path style=" stroke:none;fill-rule:nonzero;fill:rgb(38.039216%,38.039216%,38.82353%);fill-opacity:1;" d="M 28 19 C 28 21.210938 26.210938 23 24 23 C 21.789062 23 20 21.210938 20 19 C 20 16.789062 21.789062 15 24 15 C 26.210938 15 28 16.789062 28 19 Z M 28 19 "/>
<path style=" stroke:none;fill-rule:nonzero;fill:rgb(38.039216%,38.039216%,38.82353%);fill-opacity:1;" d="M 24 26 C 24 26 15 26 15 31.726562 C 15 35 16.636719 35 24 35 C 31.363281 35 33 35 33 31.726562 C 33 26 24 26 24 26 Z M 24 26 "/>
<path style=" stroke:none;fill-rule:nonzero;fill:rgb(100%,100%,100%);fill-opacity:1;" d="M 28 18 C 28 20.210938 26.210938 22 24 22 C 21.789062 22 20 20.210938 20 18 C 20 15.789062 21.789062 14 24 14 C 26.210938 14 28 15.789062 28 18 Z M 28 18 "/>
<path style=" stroke:none;fill-rule:nonzero;fill:rgb(100%,100%,100%);fill-opacity:1;" d="M 24 25 C 24 25 15 25 15 30.726562 C 15 34 16.636719 34 24 34 C 31.363281 34 33 34 33 30.726562 C 33 25 24 25 24 25 Z M 24 25 "/>
</g>
</svg>
